<svg xmlns="http://www.w3.org/2000/svg" viewBox="0 0 16 18.725"><defs><style>.a{fill:#ff3c32;}</style></defs><g transform="translate(-26.93)"><g transform="translate(26.93)"><g transform="translate(0)"><path class="a" d="M42.857,15.91,40.405,11.7c.424-.129.876-.244,1.064-.568.313-.54-.244-1.426-.1-2.005.151-.6,1.04-1.111,1.04-1.717,0-.59-.919-1.279-1.07-1.872s.408-1.466.094-2.005-1.359-.5-1.79-.909S39.2,1.152,38.67.867s-1.408.293-2,.155S35.552,0,34.937,0,33.32,1.005,33.165,1.042c-.6.138-1.468-.44-2-.152s-.53,1.329-.972,1.756-1.475.372-1.788.913.244,1.426.1,2.005S27.432,6.733,27.432,7.4c0,.606.892,1.12,1.043,1.715.147.579-.408,1.466-.094,2.005a1.544,1.544,0,0,0,.946.53c.045.014.131.064.073.148L27,15.941a.342.342,0,0,0,.306.558l1.654.069a1.317,1.317,0,0,1,.942.546l.883,1.4a.342.342,0,0,0,.636-.012l2.47-4.264c.05-.058.1-.046.123-.026a1.709,1.709,0,0,0,.961.46,1.479,1.479,0,0,0,.876-.457c.023-.02.079-.06.12.024l2.467,4.241a.342.342,0,0,0,.636.011l.88-1.4a1.317,1.317,0,0,1,.941-.547l1.654-.072A.342.342,0,0,0,42.857,15.91ZM37.67,12.076a5.481,5.481,0,1,1-.11-9.556l.041.023.058.032a5.491,5.491,0,0,1,.011,9.5Z" transform="translate(-26.93)"/><path class="a" d="M100.241,54.129l-.023-.013a4.621,4.621,0,0,0-4.771,7.914c.053.033.106.066.16.1a4.622,4.622,0,0,0,4.634-8Zm.552,3.605-.772.753a1.3,1.3,0,0,0-.332,1.022l.182,1.063c.056.329-.139.471-.435.316l-.954-.5a1.3,1.3,0,0,0-1.075,0l-.954.5c-.3.155-.491.013-.435-.316l.182-1.063a1.3,1.3,0,0,0-.332-1.022l-.772-.753c-.239-.233-.164-.463.166-.511l1.067-.155a1.3,1.3,0,0,0,.87-.632l.477-.967c.148-.3.39-.3.537,0l.477.967a1.3,1.3,0,0,0,.87.632l1.067.155C100.957,57.271,101.032,57.5,100.793,57.734Z" transform="translate(-89.919 -50.784)"/></g></g></g></svg>