<svg xmlns="http://www.w3.org/2000/svg" viewBox="0 0 16 13.061"><defs><style>.a{fill:#ff3c32;}</style></defs><g transform="translate(0 -36.648)"><g transform="translate(0 36.648)"><g transform="translate(0 0)"><path class="a" d="M54.6,205.222a2.082,2.082,0,0,1-2.054,0L47.9,202.371s-.42-.257-.42.325v2.847c0,1.5,2.729,3.117,6.1,3.117s6.1-1.617,6.1-3.117v-3.008c0-.468-.3-.239-.3-.239Z" transform="translate(-45.578 -195.6)"/><path class="a" d="M15.732,41.151a.43.43,0,0,0,0-.8L8.65,36.812a1.366,1.366,0,0,0-1.3,0L.268,40.354a.43.43,0,0,0,0,.8L7.35,45.494a1.366,1.366,0,0,0,1.3,0" transform="translate(0 -36.648)"/><path class="a" d="M356.989,190.641v-4.8s0-.227-.132-.152a3.918,3.918,0,0,0-.467.289.4.4,0,0,0-.084.3v4.356a.128.128,0,0,1-.078.106.829.829,0,1,0,.836,0A.124.124,0,0,1,356.989,190.641Z" transform="translate(-341.549 -179.7)"/></g></g></g></svg>