<svg xmlns="http://www.w3.org/2000/svg" viewBox="0 0 16 13.891"><defs><style>.a{fill:#ff3c32;}</style></defs><g transform="translate(0 -21.451)"><g transform="translate(0 21.451)"><g transform="translate(0 0)"><g transform="translate(0.639 9.074)"><path class="a" d="M17.52,210.127a.74.74,0,0,1-.737.737H13.735a.74.74,0,0,1-.737-.737v-3.343a.74.74,0,0,1,.737-.737h3.048a.74.74,0,0,1,.737.737Z" transform="translate(-12.998 -206.047)"/></g><g transform="translate(6.058 7.304)"><path class="a" d="M127.77,175.9a.74.74,0,0,1-.737.737h-3.048a.739.739,0,0,1-.737-.737v-5.112a.739.739,0,0,1,.737-.737h3.048a.74.74,0,0,1,.737.737Z" transform="translate(-123.248 -170.047)"/></g><g transform="translate(11.478 5.338)"><path class="a" d="M238.02,137.863a.739.739,0,0,1-.737.737h-3.048a.74.74,0,0,1-.737-.737v-7.078a.74.74,0,0,1,.737-.737h3.048a.739.739,0,0,1,.737.737Z" transform="translate(-233.498 -130.047)"/></g><path class="a" d="M15.362,21.465l-3.312.806c-.263.064-.321.272-.13.463l.707.69c.059.068-.011.158-.067.2a21.142,21.142,0,0,1-2.127,1.259,21.192,21.192,0,0,1-9.761,2.6.639.639,0,0,0-.065,1.276c.026,0,.131.006.308.006a22.753,22.753,0,0,0,10.109-2.749,21.651,21.651,0,0,0,2.429-1.455c.066-.047.182-.127.288-.019l.773.773c.191.191.4.132.461-.131l.751-3.353C15.788,21.564,15.624,21.4,15.362,21.465Z" transform="translate(0 -21.451)"/></g></g></g></svg>